<?xml version="1.0" encoding="UTF-8"?>
<svg id="Calque_1" data-name="Calque 1" xmlns="http://www.w3.org/2000/svg" viewBox="0 0 235.52 39.58">
  <defs>
    <style>
      .cls-1 {
        fill: #fff;
      }

      .cls-2 {
        fill: #7ccef4;
      }

      .cls-3 {
        fill: #2ebbee;
      }

      .cls-4 {
        fill: #2daae2;
      }
    </style>
  </defs>
  <polygon class="cls-1" points="21.88 .43 21.88 20.4 15.81 20.4 5.68 7.11 5.68 20.4 0 20.4 0 .43 6.08 .43 16.21 13.72 16.21 .43 21.88 .43"/>
  <path class="cls-1" d="M44.17,12.7l-3.39-8.04-3.39,8.04h6.79ZM45.88,16.75h-10.21l-1.54,3.65h-5.96L37.4.43h6.73l9.21,19.97h-5.96l-1.51-3.65Z"/>
  <path class="cls-1" d="M80.46.43v11.61c0,7.7-4.91,8.76-10.56,8.76s-10.56-1.05-10.56-8.76V.43h5.68v11.61c0,4.08,2.17,4.74,4.88,4.74s4.88-.66,4.88-4.74V.43h5.68Z"/>
  <polygon class="cls-1" points="108.39 4.48 100.83 4.48 100.83 20.4 95.15 20.4 95.15 4.48 87.59 4.48 87.59 .43 108.39 .43 108.39 4.48"/>
  <rect class="cls-1" x="115.52" y=".43" width="5.68" height="19.97"/>
  <path class="cls-1" d="M172.01,12.7l-3.4-8.04-3.39,8.04h6.79ZM173.73,16.75h-10.21l-1.54,3.65h-5.96L165.25.43h6.73l9.21,19.97h-5.96l-1.51-3.65Z"/>
  <path class="cls-1" d="M193.16,9.87h7.25c2.6,0,2.94-1.77,2.94-2.71s-.31-2.68-2.94-2.68h-7.25v5.39ZM199.52,13.89h-6.36v6.51h-5.68V.43h13.1c5.53,0,8.53,2.65,8.53,6.73,0,3.08-1.46,4.99-3.99,5.96l4.68,7.27h-6.22l-4.05-6.51Z"/>
  <polygon class="cls-1" points="235.52 20.4 216.64 20.4 216.64 .43 235.27 .43 235.27 4.48 222.32 4.48 222.32 8.1 234.44 8.1 234.44 12.15 222.32 12.15 222.32 16.35 235.52 16.35 235.52 20.4"/>
  <path class="cls-2" d="M143.19,5.89c-3.05-.43-5.2,1.38-5.85,3.36-.41,1.25-.39,2.59.09,3.82,1.15,2.95,6.31,4.88,11.15,4.32h0c.71-.08,1.71-.32,2.82-1.02-2.29,2.67-6.09,4.42-10.38,4.42-7.48,0-13.45-5.31-12.61-11.58.64-4.73,5.26-8.56,11.03-9.13,3.8-.38,7.48.49,9.92,2.48,2.22,1.82,4.16,6.05.98,8.85-1.2,1.01-2.13,1.07-2.72.8-.93-.42-.66-1.77-.66-2.46,0-2.34-1.38-3.58-3.77-3.87"/>
  <path class="cls-3" d="M136.87,20.23c-1.31-1.34-2.22-3.11-2.45-5.12-.46-3.94,2-7.65,5.84-8.9-1.48.59-2.51,1.78-2.92,3.04-.04.13-.08.26-.11.39h0c-.87,3.1,1.44,6.75,5.58,8.73,1.33.64,2.7,1.05,4.05,1.26h0c-1.74.74-3.73,1.16-5.83,1.16-1.46,0-2.85-.2-4.16-.57"/>
  <path class="cls-4" d="M148.58,17.39c-4.75.54-9.8-1.3-11.07-4.15.82,2,2.7,3.9,5.29,5.14,1.33.64,2.71,1.05,4.05,1.26,1.82-.77,3.38-1.89,4.56-3.26-1.11.7-2.11.94-2.82,1.02h0Z"/>
  <path class="cls-1" d="M55.63,37.84h-6v-7.27h1.28v6.19h4.72v1.08Z"/>
  <g>
    <path class="cls-1" d="M62.29,35.49h-4.99c.15.95.82,1.57,1.98,1.57,1.08,0,1.54-.52,1.72-.91h1.12c-.28,1.13-1.36,1.86-2.85,1.86-1.58,0-3.14-.9-3.14-2.92s1.53-2.93,3.12-2.93c1.76,0,3.17,1.04,3.02,3.34ZM61.15,34.55c-.17-.87-.77-1.46-1.88-1.46-1.03,0-1.74.58-1.93,1.46h3.81Z"/>
    <path class="cls-1" d="M71.72,36.17c0,1.29-1.07,1.83-2.92,1.83-1.68,0-2.97-.58-2.97-1.84h1.32c0,.6.59.87,1.76.87s1.54-.28,1.54-.7c0-.61-.92-.62-2.34-.88-1.43-.27-2.07-.6-2.07-1.59,0-1.11,1.04-1.71,2.67-1.71,1.78,0,2.73.71,2.73,1.74h-1.19c0-.35-.37-.79-1.56-.79-1.11,0-1.5.28-1.5.71,0,.56,1.09.63,2.08.8,1.57.27,2.45.48,2.45,1.57Z"/>
    <path class="cls-1" d="M78.94,35.08c0,1.87-1.26,2.92-2.88,2.92-.92,0-1.59-.35-2.03-.88v2.46h-1.28v-7.27h1.28v.73c.44-.53,1.1-.88,2.03-.88,1.62,0,2.88,1.05,2.88,2.93ZM77.75,35.08c0-1.17-.61-1.99-1.94-1.99s-1.97.83-1.97,1.99.63,1.97,1.97,1.97,1.94-.81,1.94-1.97Z"/>
    <path class="cls-1" d="M85.91,35.08c0,2.05-1.56,2.92-3.18,2.92s-3.17-.87-3.17-2.92,1.55-2.93,3.17-2.93,3.18.88,3.18,2.93ZM84.72,35.08c0-.98-.51-1.99-2-1.99s-2,1.01-2,1.99.51,1.97,2,1.97,2-1.01,2-1.97Z"/>
    <path class="cls-1" d="M91.06,32.19v1.27h-.04c-.22-.06-.5-.1-.85-.1-1.4,0-1.93.81-1.93,1.67v2.82h-1.29v-5.54h1.29v1.04c.25-.41,1.02-1.2,2.21-1.2.25,0,.4.01.61.04Z"/>
    <path class="cls-1" d="M94.03,33.28v2.49c0,.93.37,1.19,1.67,1.06v1c-.19.05-.47.09-.73.09-1.68,0-2.22-.69-2.22-2.15v-2.49h-1.08v-.98h1.08v-1.43h1.28v1.43h1.67v.98h-1.67Z"/>
    <path class="cls-1" d="M105.69,35.49h-4.99c.15.95.82,1.57,1.98,1.57,1.08,0,1.54-.52,1.72-.91h1.12c-.28,1.13-1.36,1.86-2.85,1.86-1.58,0-3.14-.9-3.14-2.92s1.53-2.93,3.12-2.93c1.76,0,3.17,1.04,3.02,3.34ZM104.55,34.55c-.17-.87-.77-1.46-1.88-1.46-1.03,0-1.74.58-1.93,1.46h3.81Z"/>
    <path class="cls-1" d="M112.37,34.26v3.58h-1.28v-3.2c0-.94-.51-1.46-1.52-1.46s-1.56.58-1.56,1.46v3.2h-1.28v-5.54h1.28v.85c.26-.36.97-1.01,2.12-1.01,1.44,0,2.23.82,2.23,2.11Z"/>
    <path class="cls-1" d="M118.77,33.28v2.49c0,.93.37,1.19,1.67,1.06v1c-.19.05-.47.09-.73.09-1.68,0-2.22-.69-2.22-2.15v-2.49h-1.08v-.98h1.08v-1.43h1.28v1.43h1.67v.98h-1.67Z"/>
    <path class="cls-1" d="M127.62,35.08c0,2.05-1.56,2.92-3.18,2.92s-3.17-.87-3.17-2.92,1.55-2.93,3.17-2.93,3.18.88,3.18,2.93ZM126.44,35.08c0-.98-.51-1.99-2-1.99s-2,1.01-2,1.99.51,1.97,2,1.97,2-1.01,2-1.97Z"/>
    <path class="cls-1" d="M134.29,32.31v5.54h-1.28v-.85c-.26.36-.97,1.01-2.12,1.01-1.44,0-2.23-.82-2.23-2.11v-3.58h1.28v3.2c0,.94.51,1.46,1.52,1.46s1.56-.58,1.56-1.46v-3.2h1.28Z"/>
    <path class="cls-1" d="M137.68,33.28v2.49c0,.93.37,1.19,1.67,1.06v1c-.19.05-.47.09-.73.09-1.68,0-2.22-.69-2.22-2.15v-2.49h-1.08v-.98h1.08v-1.43h1.28v1.43h1.67v.98h-1.67Z"/>
    <path class="cls-1" d="M146.32,35.49h-4.99c.15.95.82,1.57,1.98,1.57,1.08,0,1.54-.52,1.73-.91h1.12c-.28,1.13-1.36,1.86-2.85,1.86-1.58,0-3.14-.9-3.14-2.92s1.53-2.93,3.12-2.93c1.76,0,3.17,1.04,3.02,3.34ZM145.18,34.55c-.17-.87-.77-1.46-1.88-1.46-1.03,0-1.74.58-1.93,1.46h3.81Z"/>
    <path class="cls-1" d="M151.66,30.18v7.67h-1.28v-7.67h1.28Z"/>
    <path class="cls-1" d="M153.07,30.91c0-.4.28-.62.68-.62s.69.23.69.62-.28.62-.69.62-.68-.23-.68-.62ZM153.11,32.31h1.28v5.54h-1.28v-5.54Z"/>
    <path class="cls-1" d="M162.04,35.08c0,1.87-1.26,2.92-2.88,2.92-.94,0-1.6-.35-2.04-.88v.73h-1.28v-7.27h1.28v2.46c.44-.53,1.1-.88,2.04-.88,1.62,0,2.88,1.05,2.88,2.93ZM160.85,35.08c0-1.17-.6-1.99-1.94-1.99s-1.97.83-1.97,1.99.64,1.97,1.97,1.97,1.94-.81,1.94-1.97Z"/>
    <path class="cls-1" d="M168.8,35.49h-4.99c.15.95.82,1.57,1.98,1.57,1.08,0,1.54-.52,1.72-.91h1.12c-.28,1.13-1.36,1.86-2.85,1.86-1.58,0-3.14-.9-3.14-2.92s1.53-2.93,3.12-2.93c1.76,0,3.17,1.04,3.02,3.34ZM167.65,34.55c-.17-.87-.77-1.46-1.88-1.46-1.03,0-1.74.58-1.93,1.46h3.81Z"/>
    <path class="cls-1" d="M173.96,32.19v1.27h-.04c-.22-.06-.5-.1-.85-.1-1.4,0-1.93.81-1.93,1.67v2.82h-1.29v-5.54h1.29v1.04c.25-.41,1.02-1.2,2.21-1.2.25,0,.4.01.61.04Z"/>
    <path class="cls-1" d="M176.94,33.28v2.49c0,.93.37,1.19,1.67,1.06v1c-.19.05-.47.09-.73.09-1.68,0-2.22-.69-2.22-2.15v-2.49h-1.08v-.98h1.08v-1.43h1.28v1.43h1.67v.98h-1.67Z"/>
  </g>
  <path class="cls-1" d="M185.17,35.49h-4.99c.15.95.82,1.57,1.98,1.57,1.08,0,1.54-.52,1.73-.91h1.12c-.28,1.13-1.36,1.86-2.85,1.86-1.58,0-3.14-.9-3.14-2.92s1.53-2.93,3.12-2.93c1.76,0,3.17,1.04,3.02,3.34ZM184.02,34.55c-.17-.87-.77-1.46-1.88-1.46-1.03,0-1.74.58-1.93,1.46h3.81ZM183.78,30.21l-1.29,1.34h-.83l.77-1.34h1.35Z"/>
</svg>