<svg xmlns="http://www.w3.org/2000/svg" xml:space="preserve" id="Calque_1" x="0" y="0" style="enable-background:new 0 0 441.1 118.9" version="1.1" viewBox="0 0 441.1 118.9"><style>.st0{fill:#6dbf1c}</style><g id="Calque_2_00000168837827930316170410000000146741887813881499_"><circle cx="393.2" cy="16.5" r="16.5" class="st0"/><path d="M377 52s39-1 38-35c10-1 21 3 22 4s8 4 0 16-24 21-57 18c-3 0-3-3-3-3zM7 102h2v15h10v2H7v-17zM46 115h-9l-2 4h-3l8-17h2l8 17h-2l-2-4zm-1-2-4-9-3 9h7zM80 112v2l-1 4-5 1h-8v-17h8l4 1 2 3-1 3-2 1 3 2zm-11-8v5h7l1-2-1-2-3-1h-4zm8 12 1-2c0-2-1-3-4-3h-6v6h6l3-1zM101 118l-3-3-2-5 2-4 3-3 4-1 5 1 3 3 1 4-1 5a9 9 0 0 1-8 4l-4-1zm8-2 2-2 1-4-1-3-2-2-4-1-3 1-2 2-1 3 1 4 2 2 3 1 4-1zM143 119l-4-5h-5v5h-2v-17h6l5 2 2 4-1 3c-1 1-1 2-3 2l4 6h-2zm-1-8 1-3-2-3-3-1h-4v8h4l4-1zM173 115h-9l-1 4h-3l8-17h2l8 17h-3l-2-4zm-1-2-3-9-4 9h7zM196 104h-5v-2h14v2h-6v15h-3v-15zM223 118l-3-3-1-5 1-4 3-3a10 10 0 0 1 10 0l3 3 1 4-1 5a9 9 0 0 1-8 4l-5-1zm8-2 3-2 1-4-1-3-3-2-3-1-3 1-3 2v7l3 2 3 1 3-1zM254 102h2v17h-2v-17zM286 119l-3-5h-5v5h-3v-17h7l5 2 2 4-1 3-3 2 4 6h-3zm-1-8 1-3-1-3-3-1h-4v8h4l3-1zM318 117v2h-12v-17h12v2h-9v5h8v2h-8v6h9zM337 118l-3-1 1-2 3 1 3 1 3-1 1-2-1-1-1-1-2-1-3-1-2-1-1-2 1-3 2-2h6l3 1-1 2-2-1h-3l-3 1-1 2 1 1 1 1h2l4 1 2 2v5l-3 1-3 1-4-1z" class="st0"/></g><path d="M28 79c4 0 7-1 10-3 2-2 4-5 4-8h10l-4 10-8 7-12 3c-8 0-14-3-19-8S2 67 2 58v-2c0-6 1-11 3-15s5-8 9-11c4-2 9-3 14-3 7 0 12 2 17 6 4 4 6 9 7 15H42a14 14 0 0 0-14-13c-5 0-9 2-12 6s-4 9-4 15v2c0 7 2 12 4 16 3 4 7 5 12 5zM60 57c0-6 1-11 4-16 2-4 5-8 9-10s9-4 14-4c8 0 14 3 19 8 5 6 8 13 8 22v1c0 6-2 11-4 15a25 25 0 0 1-23 15c-8 0-15-3-19-9-5-5-8-13-8-22zm10 1c0 6 2 11 5 15s7 6 12 6 9-2 12-6 4-9 4-17c0-6-1-11-4-15s-7-6-12-6-9 2-12 6-5 9-5 17zM137 86h-10V3h10v83zM189 81c-4 4-10 6-17 6-6 1-11-1-14-5s-5-9-5-16V28h10v38c0 8 3 13 10 13 8 0 13-3 16-9V28h10v58h-10v-5zM234 49l13-21h11l-19 29 20 29h-12l-13-21-14 21h-11l20-29-20-29h12l13 21zM269 12l2-4 4-1 4 1 2 4-2 4-4 2c-2 0-3 0-4-2l-2-4zm11 74h-10V28h10v58zM332 86l-1-6c-5 5-10 8-17 8-6 0-10-2-14-5s-6-8-6-13c0-6 3-11 7-14 5-3 12-5 20-5h10v-5c0-3-1-6-3-8s-6-3-10-3l-9 2c-3 1-3 4-3 7h-10c0-3 1-6 3-8l8-7c4-2 8-2 12-2 6 0 12 1 16 5 3 3 5 8 6 14v27c0 5 0 9 2 12v1h-11zm-16-7c3 0 6-1 8-3l6-6V58h-7c-13 0-19 4-19 11 0 3 1 5 3 7 3 2 5 3 9 3z" class="st0"/></svg>