<?xml version="1.0" encoding="UTF-8"?>
<svg id="Calque_1" data-name="Calque 1" xmlns="http://www.w3.org/2000/svg" viewBox="0 0 85.04 85.04">
  <defs>
    <style>
      .cls-1 {
        fill: #2ebbed;
      }

      .cls-2 {
        fill: #fff;
      }

      .cls-3 {
        fill: #30aae1;
      }

      .cls-4 {
        fill: #7ecef4;
      }
    </style>
  </defs>
  <path class="cls-2" d="M42.52,0C19.07,0,0,19.07,0,42.52s19.07,42.52,42.52,42.52,42.52-19.07,42.52-42.52S65.97,0,42.52,0Z"/>
  <path class="cls-4" d="M40.6,29.16s-.02,0-.02.01c2.21-1.07,4.79-1.52,7.69-1.02,6.27.9,9.89,4.88,9.89,12.33,0,2.18-.7,6.49,1.73,7.83,1.56.86,3.99.66,7.13-2.57,8.33-8.93,3.24-22.41-2.58-28.21-6.37-6.36-16.02-9.11-25.98-7.91-15.12,1.82-27.22,14.03-28.89,29.13-1.78,16.11,8.01,30.21,22.13,35.1-3.43-4.28-5.8-9.91-6.41-16.32-1.2-12.58,5.24-24.39,15.31-28.38Z"/>
  <path class="cls-1" d="M31.71,73.87c-3.43-4.28-5.81-9.91-6.42-16.33-1.2-12.58,5.24-24.39,15.31-28.38-3.88,1.87-6.57,5.68-7.65,9.71-.11.41-.21.83-.3,1.25h0c-2.28,9.89,3.77,21.53,14.61,27.85,3.48,2.03,7.08,3.34,10.6,4.01h0c-4.57,2.37-9.76,3.71-15.27,3.71-3.81,0-7.48-.64-10.89-1.82h0Z"/>
  <path class="cls-3" d="M62.4,64.82c-12.45,1.73-25.66-4.14-29.01-13.25,2.16,6.39,7.07,12.44,13.85,16.39,3.49,2.03,7.09,3.34,10.61,4.01,4.77-2.47,8.86-6.04,11.94-10.4-2.91,2.23-5.53,2.99-7.4,3.25h0Z"/>
</svg>